<svg width="252" height="581" viewBox="0 0 252 581" fill="none" xmlns="http://www.w3.org/2000/svg">
<path d="M139.631 492.4C120.237 489.674 106.249 481.601 97.6651 468.18C89.2716 454.785 85.9741 437.55 87.7726 416.476L117.375 412.783C116.241 427.747 117.409 440.126 120.88 449.921C124.541 459.742 131.98 465.441 143.198 467.017C151.564 468.193 158.159 466.793 162.983 462.818C168.024 458.679 171.159 452.237 172.388 443.491C173.724 433.984 172.837 425.813 169.726 418.978C166.615 412.142 161.221 404.307 153.544 395.473L119.567 355.798C112.733 347.858 108.058 339.736 105.541 331.433C103.241 322.966 102.893 313.029 104.496 301.621C106.874 284.7 113.566 272.262 124.572 264.308C135.578 256.355 149.447 253.554 166.179 255.905C184.431 258.47 197.535 265.256 205.488 276.262C213.442 287.268 216.94 303.077 215.982 323.688L187.561 327.255C188.507 313.622 187.302 302.886 183.944 295.046C180.803 287.043 173.719 282.267 162.692 280.717C154.516 279.568 147.934 280.873 142.947 284.631C137.986 288.2 134.918 294.167 133.742 302.532C132.78 309.377 133.106 315.336 134.719 320.41C136.359 325.294 139.602 330.5 144.448 336.028L178.71 375.743C187.532 386.096 194.154 396.915 198.579 408.2C203.193 419.513 204.565 431.823 202.695 445.133C200.317 462.054 193.299 474.737 181.643 483.181C169.986 491.625 155.982 494.698 139.631 492.4Z" fill="black"/>
<path d="M18.144 110.72H50.688V220.736L104.256 110.72H134.496L88.416 213.536L141.984 344H110.304L65.664 234.56L50.688 261.632V344H18.144V110.72Z" fill="black"/>
</svg>
